<svg preserveAspectRatio="xMidYMid meet" viewBox="0 0 128 26" fill="none" xmlns="http://www.w3.org/2000/svg"><path d="M27.1313 7.27457C26.5658 6.79367 25.9071 6.43481 25.1965 6.22049C24.4134 5.98928 23.6003 5.87561 22.7839 5.88319C21.8863 5.87405 20.9949 6.03294 20.1557 6.35166C19.4018 6.63216 18.7038 7.04461 18.0945 7.56972C17.5339 8.05556 17.0589 8.63197 16.689 9.27497C16.5704 9.48016 16.4656 9.69301 16.3752 9.91211C16.3119 9.63225 16.2257 9.35805 16.1175 9.09227C15.8412 8.39763 15.4027 7.77918 14.8386 7.28862C14.2755 6.80683 13.6182 6.44782 12.9085 6.23454C12.1238 6.00335 11.3092 5.88968 10.4912 5.89724C9.57057 5.88635 8.65584 6.04516 7.79278 6.36572C7.03481 6.64418 6.33568 7.06208 5.7315 7.59782C5.18017 8.09052 4.7147 8.67158 4.3542 9.31715C4.18502 9.63106 4.04242 9.95857 3.92789 10.2963V6.22049H0.236328V20.3452H3.92789V11.9359C4.08563 11.5459 4.30728 11.1849 4.58374 10.8678C5.11848 10.2588 5.77633 9.77023 6.51384 9.43427C7.34967 9.04547 8.2624 8.85011 9.18414 8.86272C10.4896 8.86272 11.4266 9.14224 11.995 9.70129C12.5634 10.2603 12.8523 11.1364 12.8616 12.3295V20.317H16.5532V11.6783C16.5532 11.5471 16.5532 11.43 16.5532 11.3035C16.655 11.1527 16.7644 11.0073 16.8811 10.8678C17.4168 10.2599 18.0744 9.77145 18.8112 9.43427C19.6485 9.04493 20.5629 8.84957 21.4862 8.86272C22.7917 8.86272 23.738 9.14224 24.3251 9.70129C24.9123 10.2603 25.2059 11.1364 25.2059 12.3295V20.317H28.9021V11.6783C28.9216 10.789 28.7623 9.9048 28.4336 9.07822C28.1441 8.38478 27.6984 7.76753 27.1313 7.27457Z" fill="currentColor"/><path d="M39.2781 16.5655L34.6027 6.19336H30.6816L37.4651 20.1868L34.3451 26.0007H38.1819L47.9589 6.19336H44.0096L39.2781 16.5655Z" fill="currentColor"/><path d="M66.1172 6.19336H61.6245L57.7174 10.7704L53.5012 6.19336H48.9805L55.5859 13.1737L48.9805 20.318H53.5012L57.6378 15.4224L61.9946 20.318H66.5154L59.774 13.0051L66.1172 6.19336Z" fill="currentColor"/><path d="M81.1463 6.76393C79.6882 6.12979 78.1069 5.8289 76.5178 5.88319C74.8875 5.8454 73.267 6.14527 71.7582 6.76393C70.4783 7.28914 69.3771 8.17239 68.5866 9.30777C67.809 10.4908 67.4133 11.8841 67.4529 13.2992C67.4133 14.7141 67.8198 16.1055 68.6147 17.2766C69.435 18.4056 70.5593 19.2781 71.8565 19.7924C73.3747 20.3947 74.9973 20.6893 76.6302 20.659C78.0223 20.6949 79.409 20.4726 80.72 20.0032C81.7409 19.635 82.6549 19.0202 83.3809 18.2136C84.0195 17.4833 84.4371 16.5864 84.5849 15.6276H81.0058C80.7248 16.3314 80.1802 16.8979 79.4879 17.2063C78.5699 17.6412 77.5611 17.85 76.5459 17.8154C75.6052 17.8396 74.6698 17.6656 73.8007 17.3047C73.0853 16.9982 72.4597 16.5146 71.983 15.8993C71.5463 15.3269 71.2669 14.6502 71.1726 13.9364H84.6411C84.7883 12.3868 84.5299 10.8257 83.8916 9.40615C83.3035 8.23891 82.3352 7.30695 81.1463 6.76393ZM71.374 11.7907C71.6443 10.884 72.229 10.1033 73.023 9.58886C74.0263 9.01217 75.1613 8.70401 76.3184 8.69417C77.4755 8.68432 78.6156 8.97311 79.6285 9.53265C80.0102 9.78172 80.3301 10.1145 80.5639 10.5058C80.7977 10.8971 80.9392 11.3365 80.9777 11.7907H71.374Z" fill="currentColor"/><path d="M91.3722 0.509766H87.6807V20.3171H91.3722V0.509766Z" fill="currentColor"/><path d="M99.0744 0.509766H95.3828V20.3171H99.0744V0.509766Z" fill="currentColor"/><path d="M106.72 6.19727H103.028V20.3219H106.72V6.19727Z" fill="currentColor"/><path d="M107.033 0H102.742V3.23719H107.033V0Z" fill="currentColor"/><path d="M123.913 6.19375V10.4382C123.827 10.12 123.722 9.80716 123.599 9.50121C123.169 8.41083 122.409 7.4821 121.425 6.84492C120.238 6.13893 118.87 5.79838 117.49 5.8658C116.112 5.84537 114.75 6.16731 113.527 6.80276C112.387 7.39119 111.429 8.28068 110.758 9.37473C110.09 10.5559 109.739 11.8898 109.739 13.2467C109.739 14.6037 110.09 15.9375 110.758 17.1187C111.414 18.212 112.357 19.1047 113.485 19.7C114.66 20.3297 115.975 20.652 117.307 20.637C118.415 20.667 119.514 20.4376 120.517 19.967C121.364 19.5557 122.102 18.9506 122.671 18.2009C123.214 17.4827 123.628 16.6759 123.894 15.8163L123.922 15.7086V16.6783C123.922 17.2311 123.922 17.7886 123.979 18.3555C124.035 18.9223 124.082 19.5782 124.175 20.3184H127.614V6.19375H123.913ZM123.257 15.6289C122.801 16.3308 122.149 16.8843 121.383 17.2218C120.47 17.6206 119.48 17.8141 118.483 17.7886C117.584 17.8081 116.693 17.6138 115.883 17.2218C115.165 16.8685 114.56 16.3217 114.136 15.643C113.708 14.9278 113.492 14.1057 113.513 13.2725C113.487 12.6645 113.59 12.0579 113.815 11.4927C114.04 10.9274 114.383 10.4163 114.82 9.99311C115.691 9.16859 116.912 8.75633 118.483 8.75633C119.471 8.73324 120.453 8.91177 121.369 9.28102C122.132 9.59689 122.784 10.1316 123.243 10.8176C123.707 11.5521 123.94 12.4088 123.913 13.2772C123.927 14.1081 123.699 14.9251 123.257 15.6289Z" fill="currentColor"/></svg>